#!OML:ASF X:\für Bonn\!DataBase\2005_08_10_Bjorn_Final\c3d\bjorn.ASF
:FULLY-SPECIFIED
:DEGREES
301
root -0.177837 2.0999 22.0944 -432.629 -173.156 365.921
lowerback 52.7916 4.77075 19.2266
upperback 27.4643 -0.70849 5.00088
thorax 12.223 -5.45115 -4.25151
lowerneck 9.98384 10.8909 7.05761
upperneck 17.369 14.5728 -9.14904
head 4.84194 6.69918 -3.74745
rclavicle 6.95746e-015 3.18055e-014
rhumerus -239.746 -167.991 114.432
rradius 30.8821
rwrist -23.3208
rhand -8.82876 5.80978
rfingers 7.12502
rthumb 17.1113 -23.4567
lclavicle 6.95746e-015 3.18055e-014
lhumerus -426.018 -37.0874 -273.428
lradius 45.5854
lwrist 38.5657
lhand -23.0862 4.34961
lfingers 7.12502
lthumb 3.35985 34.3029
rfemur -73.8476 -38.6075 1.28204
rtibia 121.686
rfoot 33.7627 18.874
rtoes -6.56194
lfemur -86.4911 23.983 1.33115
ltibia 142.86
lfoot 21.3918 -32.7734
ltoes -13.2657
302
root -0.174181 2.09408 22.0981 -432.717 -173.139 365.946
lowerback 52.6201 4.72842 19.2125
upperback 27.476 -0.758877 4.9838
thorax 12.2484 -5.45586 -4.26183
lowerneck 10.0204 10.8923 7.12296
upperneck 17.513 14.556 -9.02328
head 4.87666 6.69087 -3.71977
rclavicle -1.45113e-014 3.18055e-014
rhumerus -239.631 -168.364 114.224
rradius 30.8733
rwrist -23.5812
rhand -8.80354 5.6982
rfingers 7.12502
rthumb 17.1355 -23.5662
lclavicle -1.45113e-014 3.18055e-014
lhumerus -426.911 -37.9193 -272.519
lradius 46.0413
lwrist 39.2367
lhand -23.3004 4.66953
lfingers 7.12502
lthumb 3.15297 34.626
rfemur -73.7511 -38.5199 1.23199
rtibia 121.684
rfoot 33.8242 18.798
rtoes -6.14268
lfemur -86.3892 23.6812 1.34897
ltibia 142.712
lfoot 21.7011 -32.564
ltoes -12.9705
303
root -0.170228 2.08856 22.1011 -432.826 -173.12 365.954
lowerback 52.4498 4.69554 19.1964
upperback 27.5071 -0.814657 4.9667
thorax 12.2982 -5.46793 -4.27403
lowerneck 9.90932 10.9371 7.03605
upperneck 17.7362 14.57 -8.73915
head 4.94023 6.68911 -3.60939
rclavicle -4.03533e-014 1.43125e-014
rhumerus -239.556 -168.764 113.969
rradius 30.9476
rwrist -23.9479
rhand -8.81107 5.56623
rfingers 7.12502
rthumb 17.1283 -23.6988
lclavicle -4.03533e-014 1.43125e-014
lhumerus -427.762 -38.7055 -271.638
lradius 46.4733
lwrist 39.8392
lhand -23.5235 4.97475
lfingers 7.12502
lthumb 2.93752 34.9343
rfemur -73.6562 -38.4442 1.1692
rtibia 121.697
rfoot 33.9334 18.7986
rtoes -5.64439
lfemur -86.2227 23.4385 1.37236
ltibia 142.54
lfoot 22.0734 -32.3225
ltoes -12.3815
304
root -0.165693 2.08341 22.1033 -432.923 -173.107 365.966
lowerback 52.2754 4.66347 19.1961
upperback 27.5272 -0.849437 4.949
thorax 12.3385 -5.46225 -4.29658
lowerneck 9.72801 10.979 6.94115
upperneck 18.0145 14.5741 -8.41158
head 5.02765 6.68073 -3.48012
rclavicle -7.27552e-014 -4.21423e-014
rhumerus -239.573 -169.206 113.624
rradius 31.1083
rwrist -24.217
rhand -8.99239 5.43939
rfingers 7.12502
rthumb 16.9538 -23.8407
lclavicle -7.27552e-014 -4.21423e-014
lhumerus -428.64 -39.5073 -270.776
lradius 46.9148
lwrist 40.4724
lhand -23.7265 5.25257
lfingers 7.12502
lthumb 2.74146 35.2147
rfemur -73.5757 -38.357 1.13522
rtibia 121.711
rfoot 33.9854 18.8547
rtoes -5.42914
lfemur -86.0873 23.1196 1.38282
ltibia 142.361
lfoot 22.353 -32.1023
ltoes -12.1278
305
root -0.161149 2.07583 22.1053 -433.018 -173.101 365.993
lowerback 52.0682 4.62653 19.2414
upperback 27.5749 -0.889021 4.93389
thorax 12.4258 -5.45198 -4.3416
lowerneck 9.5051 10.9954 6.89416
upperneck 18.2639 14.5609 -8.17519
head 5.12065 6.66543 -3.38482
rclavicle 2.74323e-014 -2.38542e-015
rhumerus -239.632 -169.712 113.122
rradius 31.3854
rwrist -24.5973
rhand -9.35879 5.25259
rfingers 7.12502
rthumb 16.601 -24.0574
lclavicle 2.74323e-014 -2.38542e-015
lhumerus -429.493 -40.3563 -269.93
lradius 47.3764
lwrist 41.0808
lhand -23.9378 5.54452
lfingers 7.12502
lthumb 2.53744 35.5092
rfemur -73.5349 -38.2905 1.15217
rtibia 121.739
rfoot 33.9672 18.9876
rtoes -5.54819
lfemur -85.9629 22.6923 1.40688
ltibia 142.137
lfoot 22.9342 -31.642
ltoes -11.2962
306
root -0.1574 2.06892 22.107 -433.131 -173.063 366.001
lowerback 51.8736 4.59481 19.2491
upperback 27.6299 -0.945773 4.91681
thorax 12.514 -5.45935 -4.36947
lowerneck 9.27186 11.022 6.69753
upperneck 18.4041 14.5542 -7.92024
head 5.16883 6.65037 -3.26195
rclavicle -4.83047e-014 3.33958e-014
rhumerus -239.682 -170.199 112.666
rradius 31.6553
rwrist -24.9011
rhand -9.68486 5.0566
rfingers 7.12502
rthumb 16.2871 -24.2794
lclavicle -4.83047e-014 3.33958e-014
lhumerus -430.293 -41.0975 -269.139
lradius 47.7965
lwrist 41.6463
lhand -24.0762 5.80997
lfingers 7.12502
lthumb 2.40381 35.7762
rfemur -73.4513 -38.2313 1.09047
rtibia 121.762
rfoot 33.9729 19.0254
rtoes -5.5691
lfemur -85.7972 22.2222 1.36807
ltibia 141.903
lfoot 23.3081 -31.2476
ltoes -10.8428
307
root -0.152932 2.06074 22.1092 -433.239 -173.048 365.999
lowerback 51.6764 4.57416 19.2939
upperback 27.691 -0.974092 4.90148
thorax 12.6193 -5.44569 -4.41963
lowerneck 9.0168 11.0028 6.54027
upperneck 18.4597 14.5046 -7.74183
head 5.19824 6.61893 -3.17032
rclavicle 2.44505e-014 1.59028e-014
rhumerus -239.784 -170.638 112.211
rradius 31.9759
rwrist -25.2605
rhand -10.007 4.86074
rfingers 7.12502
rthumb 15.9769 -24.5004
lclavicle 2.44505e-014 1.59028e-014
lhumerus -431.098 -41.8995 -268.358
lradius 48.2194
lwrist 42.1667
lhand -24.2459 6.07533
lfingers 7.12502
lthumb 2.23991 36.0433
rfemur -73.4077 -38.1191 1.08227
rtibia 121.791
rfoot 33.9442 19.1441
rtoes -5.82673
lfemur -85.6296 21.6941 1.34366
ltibia 141.626
lfoot 23.6966 -30.8331
ltoes -10.4578
308
root -0.14941 2.05249 22.111 -433.339 -173.033 366.012
lowerback 51.4753 4.53886 19.3365
upperback 27.7398 -1.01303 4.87882
thorax 12.708 -5.43433 -4.47223
lowerneck 8.87991 10.9808 6.44403
upperneck 18.4325 14.4644 -7.64359
head 5.19391 6.59772 -3.11997
rclavicle 2.38542e-014 -1.98785e-014
rhumerus -239.911 -171.135 111.705
rradius 32.3068
rwrist -25.6215
rhand -10.3723 4.66862
rfingers 7.12502
rthumb 15.6251 -24.7203
lclavicle 2.38542e-014 -1.98785e-014
lhumerus -431.895 -42.6234 -267.611
lradius 48.6177
lwrist 42.7312
lhand -24.4322 6.31118
lfingers 7.12502
lthumb 2.05996 36.281
rfemur -73.3625 -38.0382 1.07497
rtibia 121.819
rfoot 33.9015 19.2258
rtoes -6.05354
lfemur -85.4714 21.0581 1.29587
ltibia 141.305
lfoot 24.1703 -30.313
ltoes -9.94241
309
root -0.145061 2.04334 22.1113 -433.431 -173.012 366.029
lowerback 51.2729 4.50872 19.3601
upperback 27.784 -1.05136 4.86091
thorax 12.7885 -5.42554 -4.51081
lowerneck 8.90046 10.9435 6.42346
upperneck 18.2926 14.423 -7.67816
head 5.14386 6.5817 -3.13244
rclavicle 6.61953e-014 -3.57812e-014
rhumerus -240.05 -171.659 111.191
rradius 32.6552
rwrist -26.04
rhand -10.7238 4.45863
rfingers 7.12502
rthumb 15.2866 -24.9565
lclavicle 6.61953e-014 -3.57812e-014
lhumerus -432.66 -43.2748 -266.92
lradius 48.986
lwrist 43.1816
lhand -24.5578 6.49624
lfingers 7.12502
lthumb 1.93865 36.4672
rfemur -73.3412 -37.9625 1.07726
rtibia 121.851
rfoot 33.876 19.3246
rtoes -6.3048
lfemur -85.2995 20.3622 1.20666
ltibia 140.927
lfoot 24.586 -29.7678
ltoes -9.5956
310
root -0.141401 2.03408 22.1123 -433.517 -172.997 366.043
lowerback 51.0683 4.47325 19.4022
upperback 27.8262 -1.086 4.83969
thorax 12.8702 -5.41021 -4.56158
lowerneck 9.05105 10.8872 6.48132
upperneck 18.079 14.369 -7.79492
head 5.06059 6.56559 -3.19089
rclavicle -3.47873e-014 -7.95139e-016
rhumerus -240.227 -172.153 110.69
rradius 33.0185
rwrist -26.4044
rhand -11.1156 4.22622
rfingers 7.12502
rthumb 14.9092 -25.2172
lclavicle -3.47873e-014 -7.95139e-016
lhumerus -433.378 -43.8905 -266.287
lradius 49.3497
lwrist 43.6025
lhand -24.6755 6.70925
lfingers 7.12502
lthumb 1.82495 36.6812
rfemur -73.3156 -37.8579 1.07491
rtibia 121.873
rfoot 33.8807 19.3656
rtoes -6.54498
lfemur -85.1311 19.5401 1.07317
ltibia 140.489
lfoot 24.9385 -29.1976
ltoes -9.64497
311
root -0.137463 2.02486 22.1131 -433.621 -172.993 366.067
lowerback 50.9261 4.41028 19.4648
upperback 27.8222 -1.10898 4.79065
thorax 12.8876 -5.38061 -4.64221
lowerneck 9.34149 10.8267 6.63775
upperneck 17.7937 14.3173 -7.94611
head 4.9429 6.56019 -3.28324
rclavicle -6.06293e-014 -1.59028e-015
rhumerus -240.5 -172.628 110.171
rradius 33.3906
rwrist -26.7621
rhand -11.5329 3.9993
rfingers 7.12502
rthumb 14.5071 -25.4735
lclavicle -6.06293e-014 -1.59028e-015
lhumerus -434.114 -44.46 -265.708
lradius 49.642
lwrist 43.9035
lhand -24.6961 6.91635
lfingers 7.12502
lthumb 1.80505 36.8885
rfemur -73.2718 -37.7661 1.07326
rtibia 121.905
rfoot 33.8574 19.3872
rtoes -6.68638
lfemur -84.9022 18.7052 0.95287
ltibia 139.996
lfoot 25.3513 -28.5585
ltoes -9.56517
